HIERARCHY
ROOT Hips
{
	OFFSET 0.000000 100.481300 0.000000
	CHANNELS 6 Xposition Yposition Zposition Xrotation Yrotation Zrotation
	JOINT Spine
	{
		OFFSET -0.279200 12.230698 -2.892100
		CHANNELS 3 Xrotation Yrotation Zrotation
		JOINT Spine1
		{
			OFFSET -0.325700 14.269203 -3.374200
			CHANNELS 3 Xrotation Yrotation Zrotation
			JOINT Spine2
			{
				OFFSET -0.372300 16.307602 -0.352600
				CHANNELS 3 Xrotation Yrotation Zrotation
				JOINT Neck
				{
					OFFSET -0.418800 17.814194 8.416900
					CHANNELS 3 Xrotation Yrotation Zrotation
					JOINT Head
					{
						OFFSET 0.000000 7.031097 3.806800
						CHANNELS 3 Xrotation Yrotation Zrotation
						JOINT HeadTop_End
						{
							OFFSET 0.000000 24.646606 12.978600
							CHANNELS 3 Xrotation Yrotation Zrotation
							End Site
							{
								OFFSET 0.000000 27.854965 0.000000
							}
						}
					}
				}
				JOINT LeftShoulder
				{
					OFFSET 16.952999 14.495407 -7.737500
					CHANNELS 3 Xrotation Yrotation Zrotation
					JOINT LeftArm
					{
						OFFSET 9.308998 -2.777710 0.208600
						CHANNELS 3 Xrotation Yrotation Zrotation
						JOINT LeftForeArm
						{
							OFFSET 29.972298 0.000000 0.000000
							CHANNELS 3 Xrotation Yrotation Zrotation
							JOINT LeftHand
							{
								OFFSET 26.026505 0.000000 0.000000
								CHANNELS 3 Xrotation Yrotation Zrotation
								JOINT LeftHandThumb1
								{
									OFFSET 12.240501 -7.147949 9.207150
									CHANNELS 3 Xrotation Yrotation Zrotation
									JOINT LeftHandThumb2
									{
										OFFSET 4.138618 -2.389435 2.389433
										CHANNELS 3 Xrotation Yrotation Zrotation
										JOINT LeftHandThumb3
										{
											OFFSET 2.726913 -1.574387 1.574386
											CHANNELS 3 Xrotation Yrotation Zrotation
											JOINT LeftHandThumb4
											{
												OFFSET 3.941010 -2.275345 2.275342
												CHANNELS 3 Xrotation Yrotation Zrotation
												End Site
												{
													OFFSET -0.005798 5.087799 0.009903
												}
											}
										}
									}
								}
								JOINT LeftHandIndex1
								{
									OFFSET 24.424698 -1.985611 5.953459
									CHANNELS 3 Xrotation Yrotation Zrotation
									JOINT LeftHandIndex2
									{
										OFFSET 6.426697 0.000000 0.000000
										CHANNELS 3 Xrotation Yrotation Zrotation
										JOINT LeftHandIndex3
										{
											OFFSET 5.337898 0.000000 0.000000
											CHANNELS 3 Xrotation Yrotation Zrotation
											JOINT LeftHandIndex4
											{
												OFFSET 4.409401 0.000000 0.000000
												CHANNELS 3 Xrotation Yrotation Zrotation
												End Site
												{
													OFFSET 0.000000 4.409363 0.014373
												}
											}
										}
									}
								}
								JOINT LeftHandMiddle1
								{
									OFFSET 23.810104 0.000000 0.000000
									CHANNELS 3 Xrotation Yrotation Zrotation
									JOINT LeftHandMiddle2
									{
										OFFSET 7.176498 0.000000 0.000000
										CHANNELS 3 Xrotation Yrotation Zrotation
										JOINT LeftHandMiddle3
										{
											OFFSET 6.774902 0.000000 0.000000
											CHANNELS 3 Xrotation Yrotation Zrotation
											JOINT LeftHandMiddle4
											{
												OFFSET 5.403328 0.000000 0.000000
												CHANNELS 3 Xrotation Yrotation Zrotation
												End Site
												{
													OFFSET -0.027702 5.403244 0.017414
												}
											}
										}
									}
								}
								JOINT LeftHandRing1
								{
									OFFSET 22.908401 -0.839279 -6.020567
									CHANNELS 3 Xrotation Yrotation Zrotation
									JOINT LeftHandRing2
									{
										OFFSET 6.337502 0.000000 0.000000
										CHANNELS 3 Xrotation Yrotation Zrotation
										JOINT LeftHandRing3
										{
											OFFSET 5.779297 0.000000 0.000000
											CHANNELS 3 Xrotation Yrotation Zrotation
											JOINT LeftHandRing4
											{
												OFFSET 4.965698 0.000000 0.000000
												CHANNELS 3 Xrotation Yrotation Zrotation
												End Site
												{
													OFFSET 0.000000 4.965668 0.016186
												}
											}
										}
									}
								}
								JOINT LeftHandPinky1
								{
									OFFSET 20.037003 -1.530319 -10.950146
									CHANNELS 3 Xrotation Yrotation Zrotation
									JOINT LeftHandPinky2
									{
										OFFSET 5.254700 0.000000 0.000000
										CHANNELS 3 Xrotation Yrotation Zrotation
										JOINT LeftHandPinky3
										{
											OFFSET 4.810204 0.000000 0.000000
											CHANNELS 3 Xrotation Yrotation Zrotation
											JOINT LeftHandPinky4
											{
												OFFSET 3.647202 0.000000 0.000000
												CHANNELS 3 Xrotation Yrotation Zrotation
												End Site
												{
													OFFSET 0.000000 3.647186 0.011889
												}
											}
										}
									}
								}
							}
						}
					}
				}
				JOINT RightShoulder
				{
					OFFSET -15.141001 14.495407 -7.737500
					CHANNELS 3 Xrotation Yrotation Zrotation
					JOINT RightArm
					{
						OFFSET -9.308998 -2.777710 0.208500
						CHANNELS 3 Xrotation Yrotation Zrotation
						JOINT RightForeArm
						{
							OFFSET -29.972300 0.000000 0.000000
							CHANNELS 3 Xrotation Yrotation Zrotation
							JOINT RightHand
							{
								OFFSET -26.026505 0.000000 0.000000
								CHANNELS 3 Xrotation Yrotation Zrotation
								JOINT RightHandThumb1
								{
									OFFSET -12.240601 -7.148026 9.207092
									CHANNELS 3 Xrotation Yrotation Zrotation
									JOINT RightHandThumb2
									{
										OFFSET -4.138618 -2.389435 2.389433
										CHANNELS 3 Xrotation Yrotation Zrotation
										JOINT RightHandThumb3
										{
											OFFSET -2.726974 -1.574417 1.574421
											CHANNELS 3 Xrotation Yrotation Zrotation
											JOINT RightHandThumb4
											{
												OFFSET -3.941010 -2.275345 2.275343
												CHANNELS 3 Xrotation Yrotation Zrotation
												End Site
												{
													OFFSET 0.005814 5.087799 0.009927
												}
											}
										}
									}
								}
								JOINT RightHandIndex1
								{
									OFFSET -24.424698 -1.985657 5.953444
									CHANNELS 3 Xrotation Yrotation Zrotation
									JOINT RightHandIndex2
									{
										OFFSET -6.426697 0.000000 0.000000
										CHANNELS 3 Xrotation Yrotation Zrotation
										JOINT RightHandIndex3
										{
											OFFSET -5.337898 0.000000 0.000000
											CHANNELS 3 Xrotation Yrotation Zrotation
											JOINT RightHandIndex4
											{
												OFFSET -4.409401 0.000000 0.000000
												CHANNELS 3 Xrotation Yrotation Zrotation
												End Site
												{
													OFFSET 0.000000 4.409363 0.014408
												}
											}
										}
									}
								}
								JOINT RightHandMiddle1
								{
									OFFSET -23.810097 0.000000 0.000000
									CHANNELS 3 Xrotation Yrotation Zrotation
									JOINT RightHandMiddle2
									{
										OFFSET -7.176498 0.000000 0.000000
										CHANNELS 3 Xrotation Yrotation Zrotation
										JOINT RightHandMiddle3
										{
											OFFSET -6.774902 0.000000 0.000000
											CHANNELS 3 Xrotation Yrotation Zrotation
											JOINT RightHandMiddle4
											{
												OFFSET -5.403328 0.000000 0.000000
												CHANNELS 3 Xrotation Yrotation Zrotation
												End Site
												{
													OFFSET 0.027702 5.403244 0.017457
												}
											}
										}
									}
								}
								JOINT RightHandRing1
								{
									OFFSET -22.908302 -0.839325 -6.020576
									CHANNELS 3 Xrotation Yrotation Zrotation
									JOINT RightHandRing2
									{
										OFFSET -6.337502 0.000000 0.000000
										CHANNELS 3 Xrotation Yrotation Zrotation
										JOINT RightHandRing3
										{
											OFFSET -5.779297 0.000000 0.000000
											CHANNELS 3 Xrotation Yrotation Zrotation
											JOINT RightHandRing4
											{
												OFFSET -4.965698 0.000000 0.000000
												CHANNELS 3 Xrotation Yrotation Zrotation
												End Site
												{
													OFFSET 0.000000 4.965668 0.016226
												}
											}
										}
									}
								}
								JOINT RightHandPinky1
								{
									OFFSET -20.037003 -1.530334 -10.950259
									CHANNELS 3 Xrotation Yrotation Zrotation
									JOINT RightHandPinky2
									{
										OFFSET -5.254700 0.000000 0.000000
										CHANNELS 3 Xrotation Yrotation Zrotation
										JOINT RightHandPinky3
										{
											OFFSET -4.810204 0.000000 0.000000
											CHANNELS 3 Xrotation Yrotation Zrotation
											JOINT RightHandPinky4
											{
												OFFSET -3.647202 0.000000 0.000000
												CHANNELS 3 Xrotation Yrotation Zrotation
												End Site
												{
													OFFSET 0.000000 3.647186 0.011917
												}
											}
										}
									}
								}
							}
						}
					}
				}
			}
		}
	}
	JOINT LeftUpLeg
	{
		OFFSET 15.427100 -6.655098 0.678600
		CHANNELS 3 Xrotation Yrotation Zrotation
		JOINT LeftLeg
		{
			OFFSET 4.081073 -39.591068 13.024000
			CHANNELS 3 Xrotation Yrotation Zrotation
			JOINT LeftFoot
			{
				OFFSET -4.081074 -37.707932 -15.979700
				CHANNELS 3 Xrotation Yrotation Zrotation
				JOINT LeftToeBase
				{
					OFFSET 5.346399 -15.068900 20.645000
					CHANNELS 3 Xrotation Yrotation Zrotation
					JOINT LeftToe_End
					{
						OFFSET 2.754700 0.931300 11.300900
						CHANNELS 3 Xrotation Yrotation Zrotation
						End Site
						{
							OFFSET 0.000000 11.669021 0.000000
						}
					}
				}
			}
		}
	}
	JOINT RightUpLeg
	{
		OFFSET -15.569500 -6.655098 0.678600
		CHANNELS 3 Xrotation Yrotation Zrotation
		JOINT RightLeg
		{
			OFFSET -4.081825 -39.591045 13.023800
			CHANNELS 3 Xrotation Yrotation Zrotation
			JOINT RightFoot
			{
				OFFSET 4.081824 -37.707954 -15.979600
				CHANNELS 3 Xrotation Yrotation Zrotation
				JOINT RightToeBase
				{
					OFFSET -5.346400 -15.068900 20.645000
					CHANNELS 3 Xrotation Yrotation Zrotation
					JOINT RightToe_End
					{
						OFFSET -2.754700 0.931300 11.300900
						CHANNELS 3 Xrotation Yrotation Zrotation
						End Site
						{
							OFFSET 0.000000 11.669021 0.000000
						}
					}
				}
			}
		}
	}
}
MOTION
Frames: 4
Frame Time: 0.033333
-3.983715 86.183464 4.314108 6.439054 0.598363 8.890733 18.242631 5.822492 -6.515472 3.779674 1.200901 -1.623360 3.763952 1.178449 -1.670182 3.683387 -0.187190 -0.302484 20.006278 -1.397909 0.485060 0.000002 -0.000000 0.000000 0.748505 10.486983 -12.919237 10.228989 -3.431022 -55.285320 -0.000011 -44.092286 0.000008 -0.344585 -3.675517 -2.007017 -3.927801 -5.157633 8.886233 18.715044 35.850731 2.495923 -0.627417 -2.028772 16.503183 -0.000000 0.000003 0.000001 2.012561 7.309852 -29.115085 2.556576 4.838092 -55.686061 0.000011 -0.011419 0.111452 0.000001 -0.000000 0.000001 4.550395 9.845543 -39.619445 3.862694 5.503959 -70.101578 0.000025 -0.017923 0.174902 0.000000 -0.000000 -0.000000 3.090131 8.113225 -39.482127 3.858462 5.502432 -70.057428 0.000016 -0.014121 0.137795 -0.000000 0.000001 -0.000000 4.174731 9.302353 -40.461607 2.440826 4.757310 -54.302149 0.000091 0.033067 -0.322675 -0.000001 -0.000000 -0.000003 0.841225 -6.468572 10.740275 -4.160684 10.824588 53.178982 -0.000009 -0.000000 -0.000019 7.013164 0.562865 1.840290 -4.704653 7.165787 -8.305789 20.121944 -39.213308 -1.500867 1.000569 -4.310306 -18.104282 -0.000001 0.000000 0.000001 1.567212 -5.976700 33.386060 1.988786 -3.818306 55.013322 0.000089 0.028286 -0.347217 0.000002 -0.000001 -0.000000 2.452897 -6.851723 39.638320 3.087430 -4.385196 70.282162 0.000062 0.023898 -0.293376 0.000005 -0.000001 -0.000001 2.268945 -6.660825 39.047860 3.059554 -4.375145 69.917122 0.000197 0.042694 -0.524107 0.000000 -0.000002 -0.000001 2.917504 -7.903034 38.707823 3.166608 -4.412690 71.314237 0.000101 0.031760 -0.389953 -0.000001 -0.000001 -0.000002 -85.889854 3.122272 3.604340 65.600682 -6.855993 -5.630789 -10.921531 -2.557411 0.214860 -2.112051 -0.000002 0.000001 0.000000 -0.000000 -0.000000 -22.678511 -8.409662 -3.591464 40.985899 3.171618 3.801196 -25.235891 2.842699 -12.481782 -5.451654 0.000001 0.000004 0.000001 -0.000000 0.000000 
-4.116961 86.133530 4.475075 6.392441 -0.573760 8.837729 18.254451 6.263587 -6.539388 3.782480 1.317268 -1.584180 3.769237 1.291538 -1.635064 3.641711 -0.212500 -0.302523 19.797209 -1.496693 0.285414 0.000002 0.000000 -0.000000 0.755511 10.566886 -12.949255 10.079845 -3.096266 -55.287414 0.000001 -44.644804 0.000028 -0.491889 -3.627019 -1.971005 -3.927801 -5.157635 8.886237 18.674815 35.809545 2.529152 -0.626094 -2.022602 16.495581 -0.000001 -0.000000 0.000000 2.003474 7.314425 -28.874614 2.519650 4.812769 -55.247098 0.000015 -0.013026 0.127107 0.000000 -0.000000 -0.000002 4.578146 9.904942 -39.423090 3.819487 5.488200 -69.650465 0.000030 -0.018021 0.175857 0.000000 -0.000000 0.000000 3.077929 8.114006 -39.267195 3.816300 5.487019 -69.617133 0.000016 -0.013309 0.129884 -0.000001 0.000001 0.000000 4.211755 9.366498 -40.272226 2.443346 4.759111 -54.332499 0.000116 0.036683 -0.357979 -0.000001 0.000001 0.000001 0.829794 -6.364702 10.710422 -4.454956 11.550635 53.350112 -0.000003 0.000009 0.000003 6.683107 0.721032 1.648593 -4.704653 7.165785 -8.305788 20.080445 -39.183607 -1.533648 1.004714 -4.326578 -18.092235 -0.000000 0.000000 -0.000003 1.565865 -5.980495 33.250064 1.957355 -3.796167 54.539808 0.000098 0.030168 -0.370215 0.000002 0.000003 0.000000 2.465301 -6.877594 39.446555 3.051667 -4.372253 69.813809 0.000067 0.024417 -0.299695 0.000001 0.000001 0.000001 2.255213 -6.655781 38.817959 3.024605 -4.362244 69.458366 0.000184 0.042717 -0.524460 0.000002 -0.000002 -0.000001 2.953239 -7.980909 38.486426 3.132272 -4.400968 70.867427 0.000088 0.029981 -0.368007 -0.000001 0.000001 0.000001 -86.309569 3.008280 3.440349 65.974279 -6.837174 -5.386659 -11.071523 -2.384971 0.567684 -2.563674 0.000002 0.000000 0.000000 -0.000000 -0.000000 -22.556177 -8.592337 -3.147184 40.907635 4.126490 3.738457 -24.968740 3.125478 -13.133210 -5.452009 -0.000001 -0.000001 0.000000 0.000000 0.000000 
-4.196811 86.068108 4.602740 6.264753 -1.581761 8.914853 18.268183 6.444021 -6.653701 3.784779 1.371307 -1.583752 3.770124 1.344170 -1.636587 3.616980 -0.203435 -0.314542 19.738068 -1.330602 0.040495 -0.000003 -0.000001 0.000000 0.755910 10.644455 -12.957484 9.958423 -2.568747 -55.186084 0.000000 -44.951715 -0.000012 -0.651099 -3.616379 -1.957501 -3.927801 -5.157633 8.886231 18.639265 35.775305 2.557535 -0.624440 -2.018076 16.488656 0.000001 -0.000000 0.000001 1.987273 7.310561 -28.586281 2.474154 4.780996 -54.703036 0.000018 -0.014963 0.146031 -0.000000 -0.000000 -0.000002 4.600333 9.963696 -39.188231 3.766615 5.468387 -69.096659 0.000031 -0.018085 0.176466 0.000000 -0.000000 0.000000 3.057316 8.107674 -39.009813 3.764777 5.467686 -69.077350 0.000011 -0.012016 0.117283 0.000000 -0.000000 -0.000000 4.247353 9.434638 -40.041117 2.445861 4.760911 -54.362811 0.000141 0.041044 -0.400518 -0.000002 -0.000000 -0.000003 0.823652 -6.273977 10.705237 -4.683548 12.410330 53.682131 0.000003 0.000005 0.000007 6.318186 0.862576 1.477963 -4.704655 7.165784 -8.305789 20.039466 -39.156996 -1.565331 1.009604 -4.343016 -18.080595 -0.000002 0.000000 -0.000000 1.559792 -5.979255 33.066483 1.919279 -3.768814 53.962661 0.000115 0.032321 -0.396693 0.000001 0.000001 -0.000000 2.477363 -6.905729 39.216173 3.008264 -4.356112 69.243461 0.000060 0.024912 -0.305826 -0.000002 -0.000001 -0.000000 2.235678 -6.645744 38.544171 2.982317 -4.346203 68.901248 0.000195 0.042578 -0.522727 -0.000002 0.000001 -0.000001 2.990978 -8.066632 38.223924 3.090070 -4.386142 70.316538 0.000086 0.027597 -0.338752 0.000005 0.000001 -0.000001 -86.594900 2.811543 3.022101 66.209443 -6.848450 -4.948585 -11.045669 -2.025658 0.911085 -2.820937 0.000001 0.000003 0.000002 0.000000 0.000000 -22.439519 -8.709727 -2.940276 40.968766 4.965325 3.688409 -24.799997 3.367242 -13.672558 -5.452352 -0.000002 0.000001 -0.000000 -0.000000 -0.000000 
-4.247358 86.032341 4.702875 6.114177 -2.424024 9.084509 18.288320 6.421237 -6.757324 3.787566 1.372672 -1.602529 3.770760 1.345510 -1.655521 3.599543 -0.178481 -0.330814 19.740418 -1.073454 -0.184536 -0.000001 0.000000 -0.000000 0.759445 10.685882 -12.961900 9.851794 -2.041398 -55.036674 0.000002 -44.997843 0.000022 -0.756412 -3.652155 -1.883434 -3.927802 -5.157633 8.886232 18.608299 35.747725 2.580467 -0.622767 -2.015572 16.485150 -0.000003 0.000000 0.000002 1.964420 7.298382 -28.255415 2.421176 4.743177 -54.064871 0.000024 -0.017203 0.167885 0.000001 -0.000001 -0.000002 4.617068 10.021529 -38.919108 3.705232 5.444652 -68.451125 0.000026 -0.018118 0.176782 -0.000000 -0.000001 0.000000 3.029208 8.094815 -38.714728 3.704990 5.444561 -68.448584 0.000010 -0.010445 0.101918 -0.000000 0.000000 -0.000000 4.281161 9.506194 -39.772755 2.448377 4.762708 -54.393140 0.000183 0.046063 -0.449520 -0.000000 0.000001 -0.000000 0.823367 -6.222981 10.722107 -4.821091 13.080244 54.109831 -0.000009 -0.000000 -0.000010 5.880400 0.915039 1.485832 -4.704654 7.165785 -8.305788 19.999554 -39.133234 -1.593203 1.015027 -4.359501 -18.069434 0.000002 0.000001 0.000000 1.547892 -5.971039 32.839754 1.875446 -3.736614 53.292971 0.000142 0.034725 -0.426166 0.000002 -0.000002 -0.000001 2.488921 -6.935860 38.951343 2.958139 -4.336817 68.582039 0.000070 0.025391 -0.311670 0.000001 -0.000003 -0.000002 2.212340 -6.632894 38.231315 2.933554 -4.327124 68.256396 0.000182 0.042099 -0.516844 0.000000 0.000000 -0.000002 3.030032 -8.159273 37.924946 3.040916 -4.368306 69.672588 0.000074 0.024669 -0.302773 0.000001 -0.000001 -0.000000 -86.718944 2.572732 2.559093 66.422032 -6.859291 -4.515976 -11.101808 -1.626605 1.506321 -2.787317 -0.000000 0.000002 -0.000002 -0.000000 0.000000 -22.343253 -8.775747 -2.910169 41.062517 5.693524 3.650620 -24.657842 3.555956 -14.103446 -5.452673 -0.000003 -0.000000 -0.000000 0.000000 0.000000 
